<svg width="22" height="22" viewBox="0 0 22 22" fill="none" xmlns="http://www.w3.org/2000/svg">
<path id="info" d="M9.9 16.5H12.1V9.9H9.9V16.5ZM11 7.7C11.3117 7.7 11.5729 7.59458 11.7838 7.38375C11.9946 7.17292 12.1 6.91167 12.1 6.6C12.1 6.28833 11.9946 6.02708 11.7838 5.81625C11.5729 5.60542 11.3117 5.5 11 5.5C10.6883 5.5 10.4271 5.60542 10.2163 5.81625C10.0054 6.02708 9.9 6.28833 9.9 6.6C9.9 6.91167 10.0054 7.17292 10.2163 7.38375C10.4271 7.59458 10.6883 7.7 11 7.7ZM11 22C9.47833 22 8.04833 21.7112 6.71 21.1337C5.37167 20.5562 4.2075 19.7725 3.2175 18.7825C2.2275 17.7925 1.44375 16.6283 0.86625 15.29C0.28875 13.9517 0 12.5217 0 11C0 9.47833 0.28875 8.04833 0.86625 6.71C1.44375 5.37167 2.2275 4.2075 3.2175 3.2175C4.2075 2.2275 5.37167 1.44375 6.71 0.86625C8.04833 0.28875 9.47833 0 11 0C12.5217 0 13.9517 0.28875 15.29 0.86625C16.6283 1.44375 17.7925 2.2275 18.7825 3.2175C19.7725 4.2075 20.5562 5.37167 21.1337 6.71C21.7112 8.04833 22 9.47833 22 11C22 12.5217 21.7112 13.9517 21.1337 15.29C20.5562 16.6283 19.7725 17.7925 18.7825 18.7825C17.7925 19.7725 16.6283 20.5562 15.29 21.1337C13.9517 21.7112 12.5217 22 11 22ZM11 19.8C13.4567 19.8 15.5375 18.9475 17.2425 17.2425C18.9475 15.5375 19.8 13.4567 19.8 11C19.8 8.54333 18.9475 6.4625 17.2425 4.7575C15.5375 3.0525 13.4567 2.2 11 2.2C8.54333 2.2 6.4625 3.0525 4.7575 4.7575C3.0525 6.4625 2.2 8.54333 2.2 11C2.2 13.4567 3.0525 15.5375 4.7575 17.2425C6.4625 18.9475 8.54333 19.8 11 19.8Z" fill="#F5F3F4"/>
</svg>
