<svg version="1.1" id="Layer_1" xmlns="http://www.w3.org/2000/svg" xmlns:xlink="http://www.w3.org/1999/xlink" x="0px" y="0px"
	 width="100%" viewBox="0 0 378 288" enable-background="new 0 0 378 288" xml:space="preserve">
<path fill="#010000" opacity="1.000000" stroke="none" 
	d="
M275.000000,289.000000 
	C183.333344,289.000000 92.166702,289.000000 1.000037,289.000000 
	C1.000024,193.000031 1.000024,97.000069 1.000012,1.000075 
	C126.999939,1.000050 252.999878,1.000050 378.999878,1.000025 
	C378.999908,96.999931 378.999908,192.999863 378.999939,288.999878 
	C344.500000,289.000000 310.000000,289.000000 275.000000,289.000000 
M100.394646,242.353027 
	C92.260429,242.496567 84.122314,242.533585 75.993767,242.831741 
	C72.315063,242.966660 69.403854,244.565201 69.552437,248.861679 
	C69.700500,253.143066 72.747841,253.744446 76.230705,253.718460 
	C82.560715,253.671219 88.895409,253.854187 95.220215,253.669327 
	C98.608292,253.570297 100.515442,254.590088 102.106178,257.867218 
	C105.632675,265.132355 111.663521,269.281403 119.961861,269.380035 
	C128.495956,269.481537 135.422592,266.048889 139.115112,258.284454 
	C140.900925,254.529373 142.977203,253.657166 146.692490,253.673813 
	C172.846664,253.790939 199.001556,253.745377 225.156219,253.748535 
	C252.976776,253.751877 280.797333,253.739227 308.617859,253.768860 
	C312.018860,253.772476 314.597015,252.914413 314.790222,248.944077 
	C314.982513,244.993210 313.007019,243.127106 309.114502,243.019028 
	C301.374634,242.804138 293.635498,242.304123 285.897675,242.334457 
	C273.441193,242.383270 260.986206,242.957321 248.530212,242.971527 
	C214.554352,243.010284 180.578293,242.838303 146.602341,242.853424 
	C142.926346,242.855057 140.696548,241.754974 138.629349,238.405869 
	C134.171219,231.183136 127.586533,226.848145 118.666733,228.050705 
	C110.152946,229.198563 103.892952,233.552429 101.063042,242.094727 
	C101.063042,242.094727 101.085121,242.158173 100.394646,242.353027 
M211.500183,49.406078 
	C172.514191,49.441719 133.528183,49.464520 94.542244,49.533222 
	C90.719109,49.539959 86.846794,49.494171 83.083397,50.052769 
	C73.738358,51.439857 69.409660,56.478600 69.401588,65.982033 
	C69.361786,112.798943 69.370850,159.615982 69.453087,206.432831 
	C69.470589,216.397690 75.461380,222.205597 85.446701,222.237930 
	C124.415298,222.364120 163.384018,222.503708 202.352753,222.524490 
	C234.327072,222.541550 266.301422,222.389130 298.275818,222.329208 
	C308.645782,222.309769 314.786469,216.335022 314.831665,206.037857 
	C314.879242,195.208496 314.845703,184.378784 314.846375,173.549225 
	C314.848602,137.728378 314.763306,101.907127 314.931335,66.087059 
	C314.962006,59.542023 312.650848,54.401520 307.024017,51.681889 
	C303.466583,49.962482 299.022766,49.500198 294.970276,49.474884 
	C267.481171,49.303169 239.990417,49.398029 211.500183,49.406078 
z"/>
<path fill="#AB1B1D" opacity="1.000000" stroke="none" 
	d="
M212.000183,49.406410 
	C239.990417,49.398029 267.481171,49.303169 294.970276,49.474884 
	C299.022766,49.500198 303.466583,49.962482 307.024017,51.681889 
	C312.650848,54.401520 314.962006,59.542023 314.931335,66.087059 
	C314.763306,101.907127 314.848602,137.728378 314.846375,173.549225 
	C314.845703,184.378784 314.879242,195.208496 314.831665,206.037857 
	C314.786469,216.335022 308.645782,222.309769 298.275818,222.329208 
	C266.301422,222.389130 234.327072,222.541550 202.352753,222.524490 
	C163.384018,222.503708 124.415298,222.364120 85.446701,222.237930 
	C75.461380,222.205597 69.470589,216.397690 69.453087,206.432831 
	C69.370850,159.615982 69.361786,112.798943 69.401588,65.982033 
	C69.409660,56.478600 73.738358,51.439857 83.083397,50.052769 
	C86.846794,49.494171 90.719109,49.539959 94.542244,49.533222 
	C133.528183,49.464520 172.514191,49.441719 212.000183,49.406410 
M304.181763,68.747276 
	C303.996399,61.658600 303.238739,60.708157 297.123901,60.703255 
	C227.639099,60.647549 158.154297,60.607124 88.669487,60.602226 
	C80.633354,60.601658 80.369736,60.904396 80.369453,69.172043 
	C80.367943,113.328018 80.411110,157.483994 80.432602,201.639969 
	C80.437027,210.730682 80.681267,211.026276 90.044373,211.048508 
	C105.522392,211.085266 121.000549,211.059616 136.478653,211.058670 
	C189.633926,211.055435 242.789215,211.053040 295.944489,211.046082 
	C303.287689,211.045120 304.181305,210.154160 304.182709,202.666016 
	C304.191010,158.342194 304.185059,114.018364 304.181763,68.747276 
z"/>
<path fill="#961D21" opacity="1.000000" stroke="none" 
	d="
M101.128494,242.079742 
	C103.892952,233.552429 110.152946,229.198563 118.666733,228.050705 
	C127.586533,226.848145 134.171219,231.183136 138.629349,238.405869 
	C140.696548,241.754974 142.926346,242.855057 146.602341,242.853424 
	C180.578293,242.838303 214.554352,243.010284 248.530212,242.971527 
	C260.986206,242.957321 273.441193,242.383270 285.897675,242.334457 
	C293.635498,242.304123 301.374634,242.804138 309.114502,243.019028 
	C313.007019,243.127106 314.982513,244.993210 314.790222,248.944077 
	C314.597015,252.914413 312.018860,253.772476 308.617859,253.768860 
	C280.797333,253.739227 252.976776,253.751877 225.156219,253.748535 
	C199.001556,253.745377 172.846664,253.790939 146.692490,253.673813 
	C142.977203,253.657166 140.900925,254.529373 139.115112,258.284454 
	C135.422592,266.048889 128.495956,269.481537 119.961861,269.380035 
	C111.663521,269.281403 105.632675,265.132355 102.106178,257.867218 
	C100.515442,254.590088 98.608292,253.570297 95.220215,253.669327 
	C88.895409,253.854187 82.560715,253.671219 76.230705,253.718460 
	C72.747841,253.744446 69.700500,253.143066 69.552437,248.861679 
	C69.403854,244.565201 72.315063,242.966660 75.993767,242.831741 
	C84.122314,242.533585 92.260429,242.496567 100.588974,242.543549 
	C98.953636,243.225906 97.137260,244.075195 95.291847,244.143814 
	C89.307739,244.366318 83.285789,244.000900 77.339272,244.537018 
	C75.604424,244.693420 74.072983,247.106064 72.448311,248.484528 
	C74.175476,249.660675 75.826447,251.689407 77.644203,251.851868 
	C82.933723,252.324554 88.301117,252.272079 93.616966,252.005920 
	C98.863815,251.743240 102.089455,253.627518 104.795189,258.384613 
	C111.745697,270.604706 128.496964,271.278687 135.766403,259.282562 
	C139.448196,253.206894 143.753952,251.966904 150.033401,251.984222 
	C201.837555,252.127136 253.642288,252.084839 305.446747,252.029099 
	C308.082550,252.026260 311.918915,252.896561 312.154816,248.803207 
	C312.405365,244.455826 308.744049,244.154327 305.428955,244.068558 
	C304.263580,244.038406 303.097107,244.043762 301.931152,244.043686 
	C279.943359,244.042389 257.955597,244.030533 235.967804,244.045685 
	C206.651230,244.065903 177.333038,243.960129 148.019638,244.282089 
	C143.028595,244.336914 139.811035,243.461273 136.780060,239.106888 
	C127.189392,225.328644 110.217270,227.963837 103.981812,239.376205 
	C103.383972,240.470398 102.096062,241.187546 101.128494,242.079742 
z"/>
<path fill="#010000" opacity="1.000000" stroke="none" 
	d="
M304.182831,69.220901 
	C304.185059,114.018364 304.191010,158.342194 304.182709,202.666016 
	C304.181305,210.154160 303.287689,211.045120 295.944489,211.046082 
	C242.789215,211.053040 189.633926,211.055435 136.478653,211.058670 
	C121.000549,211.059616 105.522392,211.085266 90.044373,211.048508 
	C80.681267,211.026276 80.437027,210.730682 80.432602,201.639969 
	C80.411110,157.483994 80.367943,113.328018 80.369453,69.172043 
	C80.369736,60.904396 80.633354,60.601658 88.669487,60.602226 
	C158.154297,60.607124 227.639099,60.647549 297.123901,60.703255 
	C303.238739,60.708157 303.996399,61.658600 304.182831,69.220901 
M182.178467,170.692917 
	C192.776230,164.168045 203.425369,157.724869 213.958771,151.097687 
	C227.251663,142.734360 227.474945,129.173630 214.421356,120.645660 
	C205.252640,114.655716 195.781601,109.124901 186.671600,103.050079 
	C180.771667,99.115845 174.899689,98.885818 168.879486,102.019920 
	C162.847244,105.160286 160.283600,110.495918 160.309036,117.218956 
	C160.354370,129.202103 160.238480,141.186493 160.365555,153.168503 
	C160.504761,166.292923 168.417831,172.870819 182.178467,170.692917 
z"/>
<path fill="#B8191B" opacity="1.000000" stroke="none" 
	d="
M101.095764,242.087234 
	C102.096062,241.187546 103.383972,240.470398 103.981812,239.376205 
	C110.217270,227.963837 127.189392,225.328644 136.780060,239.106888 
	C139.811035,243.461273 143.028595,244.336914 148.019638,244.282089 
	C177.333038,243.960129 206.651230,244.065903 235.967804,244.045685 
	C257.955597,244.030533 279.943359,244.042389 301.931152,244.043686 
	C303.097107,244.043762 304.263580,244.038406 305.428955,244.068558 
	C308.744049,244.154327 312.405365,244.455826 312.154816,248.803207 
	C311.918915,252.896561 308.082550,252.026260 305.446747,252.029099 
	C253.642288,252.084839 201.837555,252.127136 150.033401,251.984222 
	C143.753952,251.966904 139.448196,253.206894 135.766403,259.282562 
	C128.496964,271.278687 111.745697,270.604706 104.795189,258.384613 
	C102.089455,253.627518 98.863815,251.743240 93.616966,252.005920 
	C88.301117,252.272079 82.933723,252.324554 77.644203,251.851868 
	C75.826447,251.689407 74.175476,249.660675 72.448311,248.484528 
	C74.072983,247.106064 75.604424,244.693420 77.339272,244.537018 
	C83.285789,244.000900 89.307739,244.366318 95.291847,244.143814 
	C97.137260,244.075195 98.953636,243.225906 100.934212,242.446106 
	C101.085121,242.158173 101.063042,242.094727 101.095764,242.087234 
M112.238823,243.695572 
	C111.767250,244.923721 111.011284,246.121414 110.875809,247.385574 
	C110.413498,251.699554 111.953217,255.131134 115.798477,257.412659 
	C119.835426,259.807892 123.742737,259.572937 127.310905,256.633148 
	C130.800018,253.758469 131.347473,249.822998 130.001877,245.793549 
	C127.347786,237.845779 119.267059,236.666443 112.238823,243.695572 
z"/>
<path fill="#AC1B1D" opacity="1.000000" stroke="none" 
	d="
M181.796875,170.788574 
	C168.417831,172.870819 160.504761,166.292923 160.365555,153.168503 
	C160.238480,141.186493 160.354370,129.202103 160.309036,117.218956 
	C160.283600,110.495918 162.847244,105.160286 168.879486,102.019920 
	C174.899689,98.885818 180.771667,99.115845 186.671600,103.050079 
	C195.781601,109.124901 205.252640,114.655716 214.421356,120.645660 
	C227.474945,129.173630 227.251663,142.734360 213.958771,151.097687 
	C203.425369,157.724869 192.776230,164.168045 181.796875,170.788574 
M186.274460,155.876404 
	C193.975296,150.988022 201.736557,146.191360 209.352814,141.174561 
	C213.473511,138.460281 214.253738,133.580460 210.724548,131.246307 
	C200.369720,124.397781 189.869690,117.748627 179.185120,111.429543 
	C175.314163,109.140190 171.123474,111.676308 171.029892,116.244484 
	C170.767776,129.039169 170.711136,141.847900 171.027222,154.639877 
	C171.159286,159.984222 175.953644,162.120361 180.633331,159.472702 
	C182.361725,158.494812 184.000610,157.358704 186.274460,155.876404 
z"/>
<path fill="#060102" opacity="1.000000" stroke="none" 
	d="
M112.461548,243.409241 
	C119.267059,236.666443 127.347786,237.845779 130.001877,245.793549 
	C131.347473,249.822998 130.800018,253.758469 127.310905,256.633148 
	C123.742737,259.572937 119.835426,259.807892 115.798477,257.412659 
	C111.953217,255.131134 110.413498,251.699554 110.875809,247.385574 
	C111.011284,246.121414 111.767250,244.923721 112.461548,243.409241 
z"/>
<path fill="#020001" opacity="1.000000" stroke="none" 
	d="
M185.977386,156.085587 
	C184.000610,157.358704 182.361725,158.494812 180.633331,159.472702 
	C175.953644,162.120361 171.159286,159.984222 171.027222,154.639877 
	C170.711136,141.847900 170.767776,129.039169 171.029892,116.244484 
	C171.123474,111.676308 175.314163,109.140190 179.185120,111.429543 
	C189.869690,117.748627 200.369720,124.397781 210.724548,131.246307 
	C214.253738,133.580460 213.473511,138.460281 209.352814,141.174561 
	C201.736557,146.191360 193.975296,150.988022 185.977386,156.085587 
z"/>
</svg>